[Header]
FileType HTR
DataType HTRS
FileVersion 1
NumSegments 22
NumFrames 5
DataFrameRate 24
EulerRotationOrder ZYX
CalibrationUnits mm
RotationUnits Degrees
GlobalAxisofGravity Y
BoneLengthAxis Y
ScaleFactor 1.0
[SegmentNames&Hierarchy]
reference	GLOBAL
Hips	reference
Spine	Hips
Spine1	Spine
Neck	Spine1
Head	Neck
LeftShoulder	Spine1
LeftArm	LeftShoulder
LeftForeArm	LeftArm
LeftHand	LeftForeArm
RightShoulder	Spine1
RightArm	RightShoulder
RightForeArm	RightArm
RightHand	RightForeArm
LeftUpLeg	Hips
LeftLeg	LeftUpLeg
LeftFoot	LeftLeg
LeftToeBase	LeftFoot
RightUpLeg	Hips
RightLeg	RightUpLeg
RightFoot	RightLeg
RightToeBase	RightFoot
[BasePosition]
reference	0	0	0	0	0	0	1
Hips	0	0	0	0	0	0	1
Spine	0	0	0	-0	-90	0	1
Spine1	0	0	0	0	0	0	1
Neck	0	0	0	82.64767223	-82.64767223	-90	1
Head	0	0	0	-0	-90	0	1
LeftShoulder	0	0	0	0	0	0	1
LeftArm	0	0	0	0	0	0	1
LeftForeArm	0	0	0	0	0	0	1
LeftHand	0	0	0	0	0	0	1
RightShoulder	0	0	0	0	-0	180	1
RightArm	0	0	0	0	-0	180	1
RightForeArm	0	0	0	0	-0	180	1
RightHand	0	0	0	0	-0	180	1
LeftUpLeg	0	0	0	-0	90	0	1
LeftLeg	0	0	0	-0	90	0	1
LeftFoot	0	0	0	-23.42853957	23.42853957	-90	1
LeftToeBase	0	0	0	0	-0	-90	1
RightUpLeg	0	0	0	-0	90	0	1
RightLeg	0	0	0	-0	90	0	1
RightFoot	0	0	0	-23.42853957	23.42853957	-90	1
RightToeBase	0	0	0	0	-0	-90	1
[reference]
30	0	0	0	0	-0	0	1.0
31	0	0	0	0	-0	0	1.0
32	0	0	0	0	-0	0	1.0
33	0	0	0	0	-0	0	1.0
34	0	0	0	0	-0	0	1.0
[Hips]
30	5.142290115	0.01155999955	7.90871048	3.256379843	1.880365729	-81.90286255	1.0
31	5.142290115	0.01155999955	7.90871048	3.22977972	1.756072521	-82.1939621	1.0
32	5.142290115	0.01155999955	7.90871048	4.930275917	2.747690678	-81.16496277	1.0
33	5.142290115	0.01155999955	7.90871048	4.062281609	1.886234641	-79.56647491	1.0
34	5.142290115	0.01155999955	7.90871048	3.463484287	1.432024837	-78.03730011	1.0
[Spine]
30	0	0	0.7457100153	344.6743774	91.36688232	352.3187866	1.0
31	0	0	0.7457100153	290.6821289	92.67337036	299.1688843	1.0
32	0	0	0.7457100153	260.7422791	92.50671387	271.2506714	1.0
33	0	0	0.7457100153	263.1459656	92.87756348	273.6095886	1.0
34	0	0	0.7457100153	274.6612549	92.55874634	284.6233521	1.0
[Spine1]
30	0	0	2.140589952	7.049061775	-2.794826031	-0.04607046768	1.0
31	0	0	2.140589952	7.585759163	-2.245053768	0.6466938257	1.0
32	0	0	2.140589952	8.00252533	-1.717864394	0.7048624158	1.0
33	0	0	2.140589952	8.475227356	-1.026603818	0.8838453293	1.0
34	0	0	2.140589952	8.327472687	-1.230463982	0.7540032268	1.0
[Neck]
30	0	0	2.32246995	82.50543213	74.34106445	96.80840302	1.0
31	0	0	2.32246995	79.07141876	75.32705688	92.87010193	1.0
32	0	0	2.32246995	77.74467468	75.7904892	91.40551758	1.0
33	0	0	2.32246995	77.05964661	76.67682648	89.772995	1.0
34	0	0	2.32246995	77.69709778	77.13532257	89.60378265	1.0
[Head]
30	0	-0.1818799973	1.409579992	-71.60368347	99.69747925	-68.03211975	1.0
31	0	-0.1818799973	1.409579992	-69.77781677	98.72721863	-66.13438416	1.0
32	0	-0.1818799973	1.409579992	-68.38565826	98.28771973	-64.50533295	1.0
33	0	-0.1818799973	1.409579992	-66.18783569	97.37356567	-62.0434494	1.0
34	0	-0.1818799973	1.409579992	-64.76397705	96.92835999	-60.21090698	1.0
[LeftShoulder]
30	0.3668199778	0.02662999928	1.946700096	-16.67642784	2.506139994	-13.62963676	1.0
31	0.3668199778	0.02662999928	1.946700096	-16.4723587	3.386027336	-13.37530994	1.0
32	0.3668199778	0.02662999928	1.946700096	-16.55150604	3.534023523	-13.3079567	1.0
33	0.3668199778	0.02662999928	1.946700096	-15.76618958	3.593770504	-12.73684502	1.0
34	0.3668199778	0.02662999928	1.946700096	-15.35862732	3.73865509	-12.66348839	1.0
[LeftArm]
30	1.140689969	0	0	70.80461884	77.10301208	15.73592472	1.0
31	1.140689969	0	0	79.75261688	77.30265808	26.88665771	1.0
32	1.140689969	0	0	83.07650757	77.09925079	32.90892029	1.0
33	1.140689969	0	0	85.33425903	76.24567413	39.1397171	1.0
34	1.140689969	0	0	84.0958252	75.14823914	39.50702286	1.0
[LeftForeArm]
30	2.749800205	0	0	-1.913024902	-5.287771225	-45.05113602	1.0
31	2.749800205	0	0	-2.967390537	-6.323600769	-35.03517914	1.0
32	2.749800205	0	0	-3.866669655	-6.337060452	-30.03871536	1.0
33	2.749800205	0	0	-8.690360069	-6.37409687	-20.58832932	1.0
34	2.749800205	0	0	-12.39985847	-5.554540634	-16.61157227	1.0
[LeftHand]
30	2.295179844	0	0	-4.527192116	3.499864578	-13.69338417	1.0
31	2.295179844	0	0	-5.046783447	0.8120415211	-11.30877972	1.0
32	2.295179844	0	0	-5.522958755	-0.5140013099	-10.34538841	1.0
33	2.295179844	0	0	-9.771104813	-1.168549895	-7.684253216	1.0
34	2.295179844	0	0	-13.06849194	-2.617203712	-6.235330582	1.0
[RightShoulder]
30	-0.3601199985	0.02662999928	1.946700096	-3.893920422	6.319031715	-177.5614929	1.0
31	-0.3601199985	0.02662999928	1.946700096	-3.946564913	5.823457241	-177.7594604	1.0
32	-0.3601199985	0.02662999928	1.946700096	-4.125698566	5.826595306	-178.0023804	1.0
33	-0.3601199985	0.02662999928	1.946700096	-4.309073925	5.713764668	-178.3031158	1.0
34	-0.3601199985	0.02662999928	1.946700096	-4.561338425	5.477606297	-178.1943359	1.0
[RightArm]
30	-1.140689969	0	0	59.0614624	-73.13512421	-218.3551636	1.0
31	-1.140689969	0	0	67.83267212	-75.30693817	-222.6001434	1.0
32	-1.140689969	0	0	72.77455139	-76.88526154	-223.5193329	1.0
33	-1.140689969	0	0	78.95502472	-80.06769562	-221.0636749	1.0
34	-1.140689969	0	0	77.1960144	-81.2674942	-214.9921265	1.0
[RightForeArm]
30	-2.749800205	0	0	3.467172146	-6.284196854	-178.3543854	1.0
31	-2.749800205	0	0	0.4971141219	-4.785661697	-176.1527405	1.0
32	-2.749800205	0	0	-0.8881163597	-3.567412853	-174.6150818	1.0
33	-2.749800205	0	0	-2.747093439	-0.7496985793	-171.5680542	1.0
34	-2.749800205	0	0	-2.335078955	0.5239043236	-170.0274506	1.0
[RightHand]
30	-2.295179844	0	0	3.571855545	1.708328247	-178.6985168	1.0
31	-2.295179844	0	0	0.6384283304	-0.5599263906	-176.04039	1.0
32	-2.295179844	0	0	-0.7602900267	-0.9948334694	-175.1364746	1.0
33	-2.295179844	0	0	-2.575892448	2.265957594	-174.1454468	1.0
34	-2.295179844	0	0	-2.209262609	2.994639635	-173.4387817	1.0
[LeftUpLeg]
30	0.9094099998	0	0	-170.0712433	-86.09040833	145.0222931	1.0
31	0.9094099998	0	0	-184.4528809	-86.13661194	160.6831512	1.0
32	0.9094099998	0	0	-192.7720032	-85.80452728	166.8977966	1.0
33	0.9094099998	0	0	-232.9874115	-86.89151764	210.1518707	1.0
34	0.9094099998	0	0	-248.9068298	-87.79082489	227.0921936	1.0
[LeftLeg]
30	0	0	-4.498080254	69.76919556	-78.20495605	-38.25005722	1.0
31	0	0	-4.498080254	68.96421814	-72.98361206	-34.85735703	1.0
32	0	0	-4.498080254	73.70881653	-68.97131348	-36.83644104	1.0
33	0	0	-4.498080254	70.17041779	-69.70046997	-32.68666458	1.0
34	0	0	-4.498080254	72.38883972	-67.56739044	-33.40441895	1.0
[LeftFoot]
30	0	0	-3.729400158	-57.8602829	-7.648957729	114.8229218	1.0
31	0	0	-3.729400158	-61.49868011	-6.938244343	117.1854401	1.0
32	0	0	-3.729400158	-62.46530151	-3.457193375	119.4490814	1.0
33	0	0	-3.729400158	-64.11587524	-5.701178074	119.7776031	1.0
34	0	0	-3.729400158	-63.89392471	-3.050544262	117.2938538	1.0
[LeftToeBase]
30	0	-1.364109993	-0.5911099911	0	9.999999975e-007	9.999999975e-007	1.0
31	0	-1.364109993	-0.5911099911	0	9.999999975e-007	9.999999975e-007	1.0
32	0	-1.364109993	-0.5911099911	0	9.999999975e-007	9.999999975e-007	1.0
33	0	-1.364109993	-0.5911099911	0	9.999999975e-007	9.999999975e-007	1.0
34	0	-1.364109993	-0.5911099911	0	9.999999975e-007	9.999999975e-007	1.0
[RightUpLeg]
30	-0.9094099998	0	0	-87.13516235	-95.14607239	97.23107147	1.0
31	-0.9094099998	0	0	-92.60751343	-101.1456375	103.2853699	1.0
32	-0.9094099998	0	0	-89.12930298	-104.3874969	97.53577423	1.0
33	-0.9094099998	0	0	-94.88239288	-108.8975906	101.3548355	1.0
34	-0.9094099998	0	0	-95.85733795	-110.1629639	100.548996	1.0
[RightLeg]
30	0	0	-4.498080254	-94.83934784	-92.51338196	103.5781555	1.0
31	0	0	-4.498080254	-117.9600906	-96.68843079	129.6868591	1.0
32	0	0	-4.498080254	-124.3496323	-97.70214844	139.5082397	1.0
33	0	0	-4.498080254	-128.6867065	-103.8708115	153.1464539	1.0
34	0	0	-4.498080254	-129.8984985	-108.5530853	160.7608948	1.0
[RightFoot]
30	0	0	-3.729400158	-62.53244019	-25.14888954	101.3584137	1.0
31	0	0	-3.729400158	-64.13056946	-23.59761047	112.5908356	1.0
32	0	0	-3.729400158	-64.20603943	-23.90683746	116.4919205	1.0
33	0	0	-3.729400158	-61.90232468	-23.12395096	127.4352264	1.0
34	0	0	-3.729400158	-59.23780441	-22.79864883	131.8810425	1.0
[RightToeBase]
30	0	-1.364109993	-0.5911099911	-9.999999975e-007	0	0	1.0
31	0	-1.364109993	-0.5911099911	-9.999999975e-007	0	0	1.0
32	0	-1.364109993	-0.5911099911	-9.999999975e-007	0	0	1.0
33	0	-1.364109993	-0.5911099911	-9.999999975e-007	0	0	1.0
34	0	-1.364109993	-0.5911099911	-9.999999975e-007	0	0	1.0
[EndOfFile]
